<svg width="698" height="514" viewBox="0 0 698 514" fill="none" xmlns="http://www.w3.org/2000/svg">
<path d="M345.564 485.137L305.191 499.436L301.12 491.428L287.79 462.714L329.849 448.766L345.564 485.137Z" fill="#FE9F73"/>
<path d="M322.61 507.458L375.797 483.601C376.243 483.309 376.597 483.051 376.843 482.831C379.768 480.215 379.16 478.091 378.482 477.013C378.182 476.532 377.682 476.213 377.116 476.125L339.206 470.272L331.426 478.918C328.952 481.677 326.054 484.028 322.822 485.868C316.23 489.615 305.337 494.929 301.223 491.636L308.931 507.901C308.923 507.901 309.531 512.622 322.61 507.458Z" fill="#212122"/>
<path d="M170.639 345.147C202.639 356.095 244.912 362.163 244.912 362.163L286.655 477.679C286.655 477.679 320.121 473.157 335.701 452.448C335.701 452.448 282.83 311.72 268.346 302.223C253.466 292.465 152.15 282.933 161.466 294.37C161.469 294.373 138.639 334.2 170.639 345.147Z" fill="#E23927"/>
<path d="M286.397 478.137L286.278 477.833L259.33 403.371L260.092 403.071L286.92 477.225C290.441 476.617 321.61 470.768 335.378 452.209L336.035 452.698C321.306 472.554 287.066 478.037 286.724 478.087L286.397 478.137Z" fill="black"/>
<path d="M298.149 510.918H291.338L303.624 229.601H317.242L298.149 510.918Z" fill="#1C1A1A"/>
<path d="M536.68 511.16H543.491L531.204 229.601H517.583L536.68 511.16Z" fill="#1C1A1A"/>
<path d="M530.304 307.38H307.115V311.816H530.304V307.38Z" fill="#1C1A1A"/>
<path d="M533.294 380.399H304.128V384.836H533.294V380.399Z" fill="#1C1A1A"/>
<path d="M697.097 369.601C697.097 369.601 694.3 330.621 679.169 338.19C664.039 345.755 651.703 395.425 650.06 396.902C648.416 398.384 648.909 443.774 648.909 443.774L666.506 434.897C666.506 434.897 671.189 326.4 697.097 369.601Z" fill="#6D6D1B"/>
<path d="M680.139 288.902C680.139 288.902 646.235 319.235 636.984 371.248C627.734 423.261 656.967 438.568 656.967 438.568C656.967 438.568 661.127 329.201 680.139 288.902Z" fill="#7B7F28"/>
<path d="M617.248 445.587C617.248 445.587 611.573 334.865 582.959 286.858C582.959 286.858 633.198 316.83 649.856 395.501C650.795 399.93 651.349 404.852 652.061 409.597C652.8 414.53 653.238 418.897 653.127 423.257C652.927 430.96 651.861 437.579 651.545 442.447C648.833 484.482 617.248 445.587 617.248 445.587Z" fill="#6D6D1B"/>
<path d="M618.218 398.568C616.271 382.784 610.276 367.735 600.644 355.079C593.687 345.936 585.629 338.986 579.338 343.947C565.358 354.967 562.561 423.384 562.561 423.384C562.561 423.384 578.349 376.019 585.256 379.144C592.163 382.268 598.578 446.575 598.578 446.575L624.398 448.715L618.218 398.568Z" fill="#7B7F28"/>
<path d="M653.439 441.72C654.497 417.547 651.469 394.343 644.427 372.76C638.793 355.491 630.601 339.214 620.069 324.376C602.138 299.114 583.375 286.628 583.186 286.504L582.729 287.205C582.913 287.328 601.564 299.745 619.407 324.892C635.869 348.091 654.989 387.186 652.6 441.681L653.439 441.72Z" fill="#21111D"/>
<path d="M657.387 438.583C657.398 438.31 658.464 410.882 661.842 378.886C664.955 349.376 670.724 309.842 680.52 289.078L679.766 288.72C669.919 309.592 664.132 349.226 661.011 378.801C657.633 410.824 656.563 438.275 656.552 438.548L657.387 438.583Z" fill="#21111D"/>
<path d="M666.925 434.916C666.933 434.739 667.726 416.904 670.346 398.838C673.79 375.076 678.769 361.709 684.745 360.177C688.274 359.273 692.307 362.517 696.739 369.82L697.455 369.385C692.811 361.732 688.466 358.361 684.541 359.365C678.123 361.012 673.067 374.253 669.519 398.718C666.895 416.831 666.098 434.697 666.09 434.878L666.925 434.916Z" fill="#21111D"/>
<path d="M623.99 448.761L624.821 448.657L618.637 398.514C616.663 382.515 610.56 367.407 600.983 354.825C594.918 346.856 589.531 342.523 584.975 341.946C582.824 341.672 580.843 342.234 579.088 343.619C573.201 348.26 568.564 363.105 565.301 387.744C562.88 406.033 562.161 423.195 562.153 423.368L562.988 423.403C563.015 422.722 565.936 355.052 579.604 344.277C581.177 343.038 582.947 342.534 584.868 342.777C589.197 343.327 594.395 347.552 600.317 355.333C609.806 367.8 615.851 382.769 617.81 398.622L623.99 448.761Z" fill="#21111D"/>
<path d="M597.155 386.964L596.413 387.347L601.836 397.864L602.578 397.481L597.155 386.964Z" fill="#21111D"/>
<path d="M597.147 394.019L596.416 394.421L601.841 404.27L602.572 403.867L597.147 394.019Z" fill="#21111D"/>
<path d="M657.253 324.285L652.615 334.468L653.375 334.814L658.013 324.632L657.253 324.285Z" fill="#21111D"/>
<path d="M656.632 332.174L652.685 339.296L653.415 339.701L657.362 332.579L656.632 332.174Z" fill="#21111D"/>
<path d="M683.245 341.92L675.349 345.945L675.728 346.689L683.624 342.664L683.245 341.92Z" fill="#21111D"/>
<path d="M679.865 346.58L675.194 349.422L675.628 350.135L680.299 347.293L679.865 346.58Z" fill="#21111D"/>
<path d="M675.472 432.08C675.472 432.08 673.998 513.026 652.319 511.129H635.269H632.533H615.482C593.803 513.026 592.329 432.08 592.329 432.08C612.843 428.979 654.955 428.979 675.472 432.08Z" fill="#F2543C"/>
<path d="M600.933 442.491L600.326 443.065L624.014 468.083L624.62 467.509L600.933 442.491Z" fill="#21111D"/>
<path d="M608.009 458.6L607.378 459.148L620.42 474.146L621.05 473.598L608.009 458.6Z" fill="#21111D"/>
<path d="M559.852 231.302H277.066C275.8 231.302 274.772 230.275 274.772 229.009V226.277C274.772 225.011 275.8 223.983 277.066 223.983H559.852C561.118 223.983 562.146 225.011 562.146 226.277V229.009C562.149 230.275 561.122 231.302 559.852 231.302Z" fill="#1C1A1A"/>
<path d="M484.263 455.369H380.141V510.664H484.263V455.369Z" fill="#FFB601"/>
<path d="M484.263 455.369H450.947V510.664H484.263V455.369Z" fill="#FFB601"/>
<path d="M489.561 455.369H374.842V465.035H489.561V455.369Z" fill="#FF9803"/>
<path d="M489.992 465.462H374.842V464.6H489.131V455.799H465.477V454.934H489.992V465.462Z" fill="black"/>
<path d="M489.561 455.369H450.947V465.035H489.561V455.369Z" fill="#FF9803"/>
<g opacity="0.5">
<path d="M437.087 469.329H391.95V479.868H437.087V469.329Z" fill="#212122"/>
</g>
<g opacity="0.5">
<path d="M437.087 496.584H391.95V497.646H437.087V496.584Z" fill="#212122"/>
</g>
<g opacity="0.5">
<path d="M437.087 490.785H391.95V491.847H437.087V490.785Z" fill="#212122"/>
</g>
<path d="M484.694 511.091H380.141V510.229H483.828V465.031H484.694V511.091Z" fill="black"/>
<path d="M476.155 412.818H396.029V455.369H476.155V412.818Z" fill="white"/>
<path d="M421.668 412.814H396.029V455.365H421.668V412.814Z" fill="#EAE7D8"/>
<path d="M480.23 412.818H391.95V420.256H480.23V412.818Z" fill="white"/>
<path d="M480.23 420.687H391.52V412.383H410.486V413.249H392.381V419.821H480.23V420.687Z" fill="black"/>
<path d="M421.664 412.814H391.95V420.252H421.664V412.814Z" fill="#EAE7D8"/>
<g opacity="0.5">
<path d="M432.331 431.667H467.067V423.559H432.331V431.667Z" fill="#212122"/>
</g>
<g opacity="0.5">
<path d="M432.331 445.353H467.067V444.533H432.331V445.353Z" fill="#212122"/>
</g>
<g opacity="0.5">
<path d="M432.331 440.889H467.067V440.069H432.331V440.889Z" fill="#212122"/>
</g>
<path d="M476.152 455.799H395.598V420.252H396.46V454.933H476.152V455.799Z" fill="black"/>
<path d="M542.925 181.025H462.799V223.576H542.925V181.025Z" fill="#FFB601"/>
<path d="M542.925 181.025H517.286V223.576H542.925V181.025Z" fill="#FF9803"/>
<path d="M547 181.025H458.72V188.463H547V181.025Z" fill="#FF9803"/>
<path d="M547.431 188.894H458.72V188.032H546.569V181.025H547.431V188.894Z" fill="black"/>
<path d="M547 181.025H517.286V188.463H547V181.025Z" fill="#FF9803"/>
<path d="M506.62 191.768H471.885V199.876H506.62V191.768Z" fill="#212122"/>
<g opacity="0.5">
<path d="M506.62 212.744H471.885V213.563H506.62V212.744Z" fill="#212122"/>
</g>
<g opacity="0.5">
<path d="M506.62 208.28H471.885V209.1H506.62V208.28Z" fill="#212122"/>
</g>
<path d="M543.356 224.007H462.799V223.145H542.491V188.463H543.356V224.007Z" fill="black"/>
<path d="M538.542 165.56C538.542 165.56 535.368 173.529 538.019 179.563L477.102 180.017L471.48 179.501L466.528 176.426L466.531 171.728L467.913 167.846L472.411 165.498L538.542 165.56Z" fill="white"/>
<path d="M474.247 180.787L540.059 180.848C540.486 180.848 540.836 180.502 540.836 180.071C540.836 179.644 540.49 179.294 540.063 179.294L474.247 179.232C470.276 179.228 467.044 176.227 467.047 172.54C467.051 168.854 470.287 165.86 474.259 165.864L540.07 165.926C540.497 165.926 540.848 165.579 540.848 165.148C540.848 164.721 540.501 164.371 540.074 164.371L474.262 164.31C469.433 164.306 465.501 167.996 465.497 172.537C465.493 177.085 469.418 180.783 474.247 180.787Z" fill="#258D8C"/>
<path d="M505.342 172.752L537.638 172.782C537.734 172.782 537.811 172.705 537.811 172.609C537.811 172.513 537.734 172.436 537.638 172.436L505.342 172.405C505.246 172.405 505.169 172.482 505.169 172.578C505.169 172.675 505.25 172.752 505.342 172.752Z" fill="#AAC9F8"/>
<path d="M469.418 172.717L500.794 172.748C500.89 172.748 500.967 172.671 500.967 172.575C500.967 172.479 500.89 172.402 500.794 172.402L469.418 172.371C469.321 172.371 469.244 172.448 469.244 172.544C469.244 172.64 469.321 172.717 469.418 172.717Z" fill="#AAC9F8"/>
<path d="M470.257 175.807L486.357 175.823C486.453 175.823 486.53 175.746 486.53 175.65C486.53 175.553 486.453 175.476 486.357 175.476L470.257 175.461C470.16 175.461 470.083 175.538 470.083 175.634C470.083 175.73 470.16 175.807 470.257 175.807Z" fill="#AAC9F8"/>
<path d="M488.719 175.826L537.638 175.872C537.734 175.872 537.811 175.795 537.811 175.699C537.811 175.603 537.734 175.526 537.638 175.526L488.719 175.48C488.622 175.48 488.545 175.557 488.545 175.653C488.545 175.749 488.622 175.826 488.719 175.826Z" fill="#AAC9F8"/>
<path d="M474.247 180.96L540.062 181.021C540.586 181.021 541.013 180.598 541.013 180.075C541.013 179.551 540.589 179.124 540.066 179.124C539.97 179.124 539.893 179.201 539.893 179.297C539.893 179.394 539.97 179.47 540.066 179.47C540.397 179.47 540.67 179.744 540.67 180.075C540.67 180.406 540.397 180.679 540.066 180.679L474.254 180.617C469.521 180.613 465.674 176.992 465.677 172.544C465.681 168.096 469.537 164.483 474.27 164.487L540.085 164.548C540.416 164.548 540.689 164.821 540.689 165.152C540.689 165.483 540.416 165.756 540.085 165.756C539.989 165.756 539.912 165.833 539.912 165.93C539.912 166.026 539.989 166.103 540.085 166.103C540.609 166.103 541.036 165.679 541.036 165.156C541.036 164.633 540.612 164.206 540.089 164.206L474.277 164.144C469.352 164.14 465.346 167.907 465.339 172.544C465.319 177.177 469.321 180.956 474.247 180.96Z" fill="#21111D"/>
<path d="M520.245 169.5C520.245 169.5 522.312 174.664 521.115 178.466L519.434 175.861C519.434 175.861 518.283 177.238 517.575 178.462C517.575 178.462 516.297 169.97 513.804 169.492L520.245 169.5Z" fill="#F75553"/>
<path d="M470.264 169.627L537.646 169.692C537.742 169.692 537.819 169.616 537.819 169.519C537.819 169.423 537.742 169.346 537.646 169.346L470.264 169.281C470.168 169.281 470.091 169.358 470.091 169.454C470.091 169.55 470.168 169.627 470.264 169.627Z" fill="#AAC9F8"/>
<path d="M467.193 149.164C467.193 149.164 470.353 157.14 467.69 163.166L528.607 163.736L534.229 163.232L539.185 160.165L539.189 155.467L537.815 151.58L533.32 149.225L467.193 149.164Z" fill="white"/>
<path d="M531.458 164.517L465.647 164.456C465.22 164.456 464.869 164.109 464.869 163.678C464.869 163.251 465.22 162.901 465.647 162.901L531.458 162.963C535.429 162.967 538.666 159.969 538.669 156.283C538.673 152.596 535.445 149.595 531.47 149.591L465.658 149.529C465.231 149.529 464.881 149.183 464.881 148.752C464.881 148.325 465.231 147.975 465.658 147.975L531.474 148.036C536.303 148.04 540.228 151.742 540.224 156.283C540.22 160.831 536.288 164.521 531.458 164.517Z" fill="#FC4963"/>
<path d="M468.079 156.39L500.378 156.421C500.475 156.421 500.552 156.344 500.552 156.248C500.552 156.151 500.475 156.074 500.378 156.074L468.083 156.044C467.986 156.044 467.909 156.121 467.909 156.217C467.905 156.313 467.983 156.39 468.079 156.39Z" fill="#AAC9F8"/>
<path d="M504.927 156.425L536.303 156.456C536.399 156.456 536.476 156.379 536.476 156.283C536.476 156.186 536.399 156.109 536.303 156.109L504.927 156.079C504.83 156.079 504.753 156.156 504.753 156.252C504.753 156.348 504.83 156.425 504.927 156.425Z" fill="#AAC9F8"/>
<path d="M519.356 159.53L535.456 159.546C535.552 159.546 535.629 159.469 535.629 159.372C535.629 159.276 535.552 159.199 535.456 159.199L519.356 159.184C519.26 159.184 519.183 159.261 519.183 159.357C519.187 159.453 519.264 159.53 519.356 159.53Z" fill="#AAC9F8"/>
<path d="M468.075 159.48L516.994 159.526C517.09 159.526 517.167 159.449 517.167 159.353C517.167 159.257 517.09 159.18 516.994 159.18L468.075 159.134C467.979 159.134 467.902 159.211 467.902 159.307C467.905 159.403 467.982 159.48 468.075 159.48Z" fill="#AAC9F8"/>
<path d="M465.642 164.625L531.458 164.686C536.383 164.69 540.389 160.923 540.397 156.286C540.401 151.649 536.399 147.874 531.477 147.867L465.662 147.805C465.138 147.805 464.711 148.228 464.711 148.752C464.711 149.275 465.134 149.702 465.658 149.702C465.754 149.702 465.831 149.625 465.831 149.529C465.831 149.433 465.754 149.356 465.658 149.356C465.327 149.356 465.054 149.083 465.054 148.752C465.054 148.421 465.327 148.148 465.658 148.148L531.469 148.209C536.202 148.213 540.05 151.834 540.047 156.282C540.043 160.73 536.187 164.344 531.454 164.34L465.642 164.278C465.311 164.278 465.038 164.005 465.038 163.674C465.038 163.343 465.311 163.07 465.642 163.07C465.739 163.07 465.815 162.993 465.815 162.897C465.815 162.801 465.739 162.724 465.642 162.724C465.119 162.724 464.692 163.147 464.692 163.67C464.696 164.201 465.119 164.625 465.642 164.625Z" fill="#21111D"/>
<path d="M476.086 153.135C476.086 153.135 474.008 158.295 475.201 162.101L476.886 159.5C476.886 159.5 478.033 160.881 478.737 162.105C478.737 162.105 480.03 153.616 482.524 153.143L476.086 153.135Z" fill="#212122"/>
<path d="M468.082 153.3L535.464 153.366C535.56 153.366 535.637 153.289 535.637 153.192C535.637 153.096 535.56 153.019 535.464 153.019L468.082 152.954C467.986 152.954 467.909 153.031 467.909 153.127C467.909 153.223 467.986 153.3 468.082 153.3Z" fill="#AAC9F8"/>
<path d="M424.843 182.063V187.104C416.023 187.104 408.847 194.28 408.847 203.1C408.847 211.92 416.023 219.096 424.843 219.096V221.097C424.843 222.694 426.136 223.987 427.732 223.987H450.001C451.598 223.987 452.891 222.694 452.891 221.097V182.063H424.843ZM412.791 203.096C412.791 196.451 418.197 191.044 424.843 191.044V215.148C418.197 215.148 412.791 209.742 412.791 203.096Z" fill="#6B85B6"/>
<path d="M437.081 202.766L436.414 203.166L440.552 210.062L441.218 209.663L437.081 202.766Z" fill="#49263E"/>
<path d="M441.763 204.102L441.09 204.49L444.998 211.272L445.671 210.883L441.763 204.102Z" fill="#49263E"/>
<g opacity="0.5">
<path d="M441.105 177.796C441.105 177.796 427.972 173.575 431.808 163.147C435.648 152.723 446.303 144.788 441.105 134.295C441.105 134.295 454.392 141.718 450.394 152.465C446.399 163.216 436.068 163.97 441.105 177.796Z" fill="white"/>
</g>
<path d="M697.271 510.202H21.1382V513.273H697.271V510.202Z" fill="#21111D"/>
<path d="M358.704 223.621H284.792C283.042 223.621 281.625 222.201 281.625 220.454C281.625 218.707 283.042 217.287 284.792 217.287H355.218L389.857 162.546C390.792 161.069 392.747 160.626 394.228 161.565C395.706 162.5 396.145 164.455 395.21 165.936L358.704 223.621Z" fill="#FFB601"/>
<g opacity="0.5">
<path d="M290.804 221.202H325.02V220.132H290.804V221.202Z" fill="#1C1A1A"/>
</g>
<g opacity="0.5">
<path d="M330.926 221.202H332.492V220.133H330.926V221.202Z" fill="#1C1A1A"/>
</g>
<g opacity="0.5">
<path d="M335.151 221.202H336.717V220.133H335.151V221.202Z" fill="#1C1A1A"/>
</g>
<g opacity="0.5">
<path d="M339.37 221.202H340.937V220.133H339.37V221.202Z" fill="#1C1A1A"/>
</g>
<g opacity="0.5">
<path d="M343.595 221.202H345.161V220.133H343.595V221.202Z" fill="#1C1A1A"/>
</g>
<path d="M358.704 224.164H285.335C285.035 224.164 284.792 223.921 284.792 223.621C284.792 223.321 285.035 223.078 285.335 223.078H358.108C358.292 223.078 358.466 222.982 358.566 222.828L391.535 170.731C391.696 170.477 392.027 170.404 392.281 170.561C392.535 170.723 392.608 171.054 392.451 171.308L359.162 223.91C359.062 224.067 358.889 224.164 358.704 224.164Z" fill="black"/>
<path d="M270.412 257.245C270.562 255.813 269.508 254.532 268.092 254.289L259.269 252.777C258.992 252.731 258.776 252.512 258.73 252.235C258.665 251.827 258.988 251.461 259.403 251.477L272.613 251.965C274.126 252.023 275.168 250.842 274.93 249.349C274.691 247.852 273.256 246.586 271.74 246.528L258.268 246.032C257.957 246.02 257.695 245.789 257.645 245.482L257.61 245.262C257.553 244.904 257.795 244.57 258.153 244.512L272.917 242.138C274.337 241.911 275.407 240.637 275.269 239.205C275.118 237.635 273.683 236.543 272.152 236.789L257.295 239.175C256.937 239.232 256.602 238.99 256.544 238.632L256.433 237.94C256.379 237.612 256.579 237.301 256.894 237.208L270.289 233.214C271.667 232.802 272.563 231.406 272.24 230.001C271.89 228.466 270.32 227.565 268.835 228.012C268.835 228.012 248.079 233.003 244.773 233.518L248.09 226.449C248.964 225.241 248.695 223.552 247.486 222.678C246.278 221.805 244.589 222.074 243.715 223.286L231.956 236.1C231.386 236.889 231.69 238.813 232.302 240.298C233.626 256.183 233.961 258.618 234.711 262.87L251.43 259.6C256.256 258.657 261.212 258.599 266.057 259.43L267.272 259.638C268.8 259.888 270.247 258.811 270.412 257.245Z" fill="#FE9F73"/>
<path d="M175.268 236.25L234.965 227.619C234.965 227.619 243.365 253.658 241.626 268.142C241.626 268.142 186.162 283.114 174.529 281.633C162.897 280.152 151.037 263.501 151.037 263.501C151.037 263.501 149.19 176.734 150.93 178.077C152.673 179.423 175.268 236.25 175.268 236.25Z" fill="#7B7F28"/>
<path d="M240.81 256.456C240.518 256.456 240.268 256.233 240.241 255.933C239.19 244.189 235.415 231.036 234.638 228.416L174.899 236.751L164.282 210.488C154.327 182.267 146.047 170.662 145.966 170.546C132.748 153.704 110.657 151.73 110.437 151.711C110.122 151.684 109.887 151.411 109.914 151.095C109.941 150.779 110.218 150.545 110.53 150.572C110.757 150.591 133.344 152.607 146.882 169.858C146.978 169.988 155.343 181.706 165.356 210.084L175.626 235.496L235.446 227.15L235.589 227.616C235.635 227.766 240.202 242.665 241.38 255.833C241.407 256.148 241.176 256.425 240.86 256.456C240.845 256.452 240.826 256.456 240.81 256.456Z" fill="#21111D"/>
<path d="M156.517 500.975H119.019V372.703H110.688V500.975H74.1629C69.0644 500.975 64.9355 505.107 64.9355 510.202H110.692H119.022H165.752C165.748 505.103 161.616 500.975 156.517 500.975Z" fill="#1C1A1A"/>
<path d="M6.41602 174.21H92.5988L138.189 372.703L39.4315 362.406L6.41602 174.21Z" fill="#6B85B6"/>
<path d="M203.828 352.482C203.828 352.482 90.5667 352.482 56.7662 352.482C51.3098 352.482 46.6345 348.588 45.6456 343.224L15.593 180.52C14.7849 176.149 10.5138 173.294 6.1348 174.264C1.96361 175.187 -0.637644 179.366 0.135796 183.568L34.1825 367.885C34.448 369.313 35.0868 370.575 35.9718 371.599C38.1613 375.67 42.4595 378.436 47.408 378.436H203.828C210.996 378.436 216.807 372.626 216.807 365.457C216.807 358.292 210.996 352.482 203.828 352.482Z" fill="#476CA8"/>
<path d="M56.7624 353.117C51.0021 353.117 46.0651 349.007 45.0185 343.343L14.966 180.64C14.6042 178.689 13.496 177.011 11.8414 175.914C10.1867 174.818 8.2089 174.452 6.26953 174.883C5.92706 174.96 5.58846 174.745 5.51534 174.402C5.43839 174.06 5.65387 173.725 5.99634 173.648C8.27818 173.144 10.6024 173.575 12.5417 174.86C14.4849 176.145 15.7894 178.119 16.2127 180.409L46.2652 343.112C47.2003 348.176 51.6177 351.851 56.7663 351.851C57.1165 351.851 57.3974 352.136 57.3974 352.482C57.3974 352.832 57.1126 353.117 56.7624 353.117Z" fill="#21111D"/>
<path d="M165.775 353.721C165.775 353.721 128.611 354.333 102.561 353.44C94.1992 353.155 86.7572 353.744 82.3513 352.763C64.2197 348.738 59.7561 292.142 80.3427 257.472C100.929 222.798 172.959 329.255 172.959 329.255L165.775 353.721Z" fill="#F2543C"/>
<path d="M232.68 499.15L194.342 497.088C190.19 496.865 186.908 493.486 186.808 489.33L185.873 451.59L232.299 456.303L232.68 499.15Z" fill="#FE9F73"/>
<path d="M134.595 276.096C134.595 276.096 234.172 287.905 236.808 298.445C239.444 308.984 245.108 417.235 239.463 465.05C239.463 465.05 202.219 467.182 185.65 463.168L181.186 353.186L165.121 353.748L126.164 285.208L134.595 276.096Z" fill="#F2543C"/>
<path d="M208.003 466.347C191.545 466.347 185.677 463.869 185.4 463.746L185.034 463.584L180.713 352.955L187.512 356.164L186.97 357.315L182.064 355.002L186.269 462.718C188.051 463.334 196.586 465.796 216.745 464.865L216.803 466.135C213.582 466.285 210.654 466.347 208.003 466.347Z" fill="#21111D"/>
<path d="M192.568 442.493C190.81 435.717 190.31 369.636 190.29 366.823L191.56 366.815C191.564 367.5 192.08 435.552 193.8 442.174L192.568 442.493Z" fill="#21111D"/>
<path d="M137.812 354.906C121.597 354.906 102.153 354.356 80.2966 352.713L80.3928 351.45C145.516 356.357 189.186 351.504 189.621 351.454L189.763 352.713C189.475 352.743 170.008 354.906 137.812 354.906Z" fill="#21111D"/>
<path d="M200.511 510.079L261.897 510.063C262.451 509.975 262.905 509.879 263.232 509.775C267.169 508.52 267.5 506.219 267.315 504.888C267.234 504.299 266.892 503.776 266.384 503.445L232.472 481.492L221.27 486.448C217.703 488.034 213.905 489.046 210.011 489.419C202.061 490.181 189.186 490.593 186.65 485.656L187.17 504.611C187.17 504.611 185.315 510.229 200.511 510.079Z" fill="#212122"/>
<path d="M176.699 189.344C176.699 189.344 170.419 195.189 163.835 194.896L185.45 251.85L187.966 256.902L192.622 260.408L197.001 258.703L200.122 256.01L200.684 250.965L176.699 189.344Z" fill="white"/>
<path d="M185.757 254.793L161.893 193.461C161.739 193.061 161.935 192.61 162.335 192.457C162.735 192.303 163.185 192.499 163.339 192.899L187.204 254.232C188.643 257.933 192.611 259.857 196.047 258.522C199.483 257.187 201.103 253.085 199.664 249.383L175.799 188.051C175.645 187.65 175.841 187.2 176.241 187.046C176.642 186.892 177.092 187.089 177.246 187.489L201.111 248.821C202.862 253.32 200.842 258.322 196.609 259.969C192.38 261.612 187.512 259.292 185.757 254.793Z" fill="#6B85B6"/>
<path d="M170.289 192.795L182.002 222.894C182.036 222.983 182.137 223.025 182.225 222.994C182.314 222.959 182.356 222.859 182.325 222.771L170.612 192.672C170.577 192.584 170.477 192.537 170.389 192.572C170.3 192.607 170.254 192.707 170.289 192.795Z" fill="#AAC9F8"/>
<path d="M183.652 227.135L195.031 256.375C195.065 256.464 195.166 256.506 195.254 256.476C195.343 256.441 195.385 256.341 195.354 256.252L183.976 227.012C183.941 226.923 183.841 226.877 183.752 226.912C183.66 226.946 183.618 227.046 183.652 227.135Z" fill="#AAC9F8"/>
<path d="M186.008 241.707L191.845 256.71C191.88 256.798 191.98 256.841 192.068 256.81C192.157 256.775 192.199 256.675 192.165 256.587L186.327 241.583C186.293 241.495 186.193 241.453 186.104 241.483C186.016 241.518 185.973 241.618 186.008 241.707Z" fill="#AAC9F8"/>
<path d="M167.41 193.919L185.149 239.51C185.184 239.598 185.284 239.644 185.372 239.61C185.461 239.575 185.503 239.475 185.473 239.386L167.733 193.796C167.699 193.707 167.599 193.665 167.51 193.696C167.418 193.73 167.376 193.827 167.41 193.919Z" fill="#AAC9F8"/>
<path d="M161.731 193.523L185.596 254.855C187.381 259.442 192.349 261.809 196.67 260.127C200.991 258.445 203.054 253.343 201.268 248.756L177.403 187.424C177.215 186.935 176.665 186.693 176.176 186.885C175.687 187.073 175.445 187.624 175.637 188.112C175.672 188.201 175.772 188.247 175.86 188.212C175.949 188.178 175.991 188.078 175.96 187.989C175.841 187.678 175.995 187.327 176.303 187.208C176.615 187.089 176.965 187.243 177.084 187.551L200.949 248.883C202.665 253.293 200.691 258.195 196.547 259.808C192.403 261.42 187.635 259.142 185.919 254.732L162.054 193.399C161.935 193.088 162.089 192.738 162.396 192.618C162.708 192.499 163.058 192.653 163.178 192.961C163.212 193.049 163.312 193.092 163.401 193.061C163.489 193.026 163.532 192.926 163.501 192.838C163.312 192.349 162.762 192.107 162.273 192.299C161.785 192.484 161.542 193.034 161.731 193.523Z" fill="#21111D"/>
<path d="M176.234 199.072C176.234 199.072 170.669 199.014 167.56 201.504L170.596 202.131C170.596 202.131 169.727 203.705 168.842 204.805C168.842 204.805 177.219 202.923 178.565 205.074L176.234 199.072Z" fill="#212122"/>
<path d="M173.171 191.676L197.605 254.471C197.64 254.559 197.74 254.605 197.829 254.571C197.917 254.536 197.96 254.436 197.929 254.347L173.494 191.553C173.46 191.464 173.36 191.418 173.271 191.452C173.179 191.487 173.136 191.587 173.171 191.676Z" fill="#AAC9F8"/>
<path d="M192.788 224.364C195.812 216.961 189.787 218.958 189.787 218.958C191.003 214.817 189.736 213.798 188.467 213.663C187.539 213.567 186.627 213.955 186 214.644C184.003 216.83 179.324 221.948 176.022 223.387C175.438 223.614 173.021 222.34 171.532 218.7C171.205 218.738 169.262 219.966 167.642 224.599C165.837 229.759 162.862 231.764 162.862 231.764L143.75 239.059L158.937 262.851C158.937 262.851 179.62 252.231 182.745 250.65C185.873 249.072 194.604 240.279 196.409 235.943C199.68 228.074 195.932 229.613 195.932 229.613C198.564 221.128 192.788 224.364 192.788 224.364Z" fill="#FE9F73"/>
<path d="M185.411 226.165L185.219 226.076C185.022 225.919 184.988 225.63 185.146 225.434C187.127 222.963 189.386 218.523 189.478 218.334C189.594 218.107 189.871 218.023 190.094 218.13C190.321 218.246 190.41 218.519 190.294 218.746C190.198 218.938 187.897 223.46 185.857 226.003C185.75 226.142 185.577 226.2 185.411 226.165Z" fill="#F07162"/>
<path d="M188.536 231.329L188.321 231.217C188.132 231.048 188.121 230.756 188.294 230.571C190.387 228.293 191.792 225.526 192.273 224.506C192.376 224.283 192.638 224.187 192.865 224.283C193.104 224.383 193.211 224.664 193.1 224.899C192.588 225.992 191.153 228.808 188.963 231.19C188.855 231.313 188.69 231.36 188.536 231.329Z" fill="#F07162"/>
<path d="M191.814 236.092L191.587 235.973C191.406 235.796 191.403 235.508 191.583 235.327C194.062 232.802 195.535 229.486 195.551 229.451C195.651 229.22 195.928 229.112 196.155 229.216C196.386 229.316 196.49 229.586 196.39 229.82C196.374 229.855 194.831 233.326 192.238 235.969C192.122 236.081 191.964 236.123 191.814 236.092Z" fill="#F07162"/>
<path d="M96.1693 316.142C96.1693 316.142 119.692 304.936 141.568 288.429C163.443 271.921 176.649 261.497 176.649 261.497C176.649 261.497 173.271 253.512 170.339 247.89L159.868 232.637L152.942 184.334C152.942 184.334 149.006 157.921 113.393 151.634C110.222 151.153 110.48 151.145 110.48 151.145C110.48 151.145 78.2301 152.311 66.0089 154.004C47.0154 156.632 45.0684 205.724 45.0684 205.724C45.0645 238.328 48.9202 282.945 60.2524 297.479C74.6476 315.942 91.2478 316.53 96.1808 316.246C96.1731 316.176 96.1693 316.142 96.1693 316.142Z" fill="#7B7F28"/>
<path d="M86.8266 150.122C86.8266 150.122 65.3204 149.367 55.0579 155.185C39.7391 163.863 45.1956 213.571 45.1956 213.571C45.1956 213.571 58.2132 206.471 59.002 204.105C59.7909 201.738 86.8266 150.122 86.8266 150.122Z" fill="#7B7F28"/>
<path d="M81.3123 314.348C82.7014 314.872 84.0097 315.283 85.2141 315.603C92.4598 317.523 97.5198 316.726 97.7315 316.692C98.0547 316.638 98.2702 316.334 98.2202 316.011C98.1663 315.687 97.8623 315.472 97.5429 315.522C97.4929 315.53 92.4752 316.315 85.4604 314.441C78.9919 312.717 69.449 308.307 60.7218 297.113C49.7667 283.06 45.761 239.802 45.6648 207.025C45.6648 206.698 45.3993 206.432 45.0722 206.436C44.7451 206.436 44.4796 206.702 44.4834 207.029C44.5835 239.99 48.6508 283.557 59.7906 297.841C67.1172 307.241 75.0285 311.974 81.3123 314.348Z" fill="#21111D"/>
<path d="M98.9014 260.223C99.0091 260.261 99.1285 260.273 99.2478 260.246C99.5671 260.173 99.7633 259.854 99.6864 259.534C99.5863 259.115 89.7933 217.488 85.6298 191.291C85.5759 190.967 85.2719 190.748 84.9525 190.798C84.6293 190.848 84.41 191.152 84.46 191.475C88.635 217.715 98.4358 259.384 98.5359 259.804C98.5782 260.004 98.7205 260.158 98.9014 260.223Z" fill="#21111D"/>
<path d="M98.8824 172.928C99.3441 172.924 99.8097 172.913 100.287 172.893C100.556 172.882 100.768 172.655 100.756 172.382C100.745 172.112 100.525 171.901 100.244 171.912C79.831 172.759 74.4093 158.356 74.3669 158.21C74.2861 157.956 74.0168 157.802 73.759 157.875C73.5012 157.948 73.3472 158.206 73.4165 158.464C73.455 158.618 78.8614 173.101 98.8824 172.928Z" fill="#21111D"/>
<path d="M113.062 379.183L51.7101 379.071C35.1832 380.56 33.2168 366.419 33.1206 365.642L29.4728 345.894C29.4073 345.552 29.6383 345.221 29.9807 345.155C30.327 345.094 30.6541 345.321 30.7195 345.663L34.3789 365.484C34.4366 366.046 35.9605 379.237 51.6255 377.809L51.6832 377.805L113.066 377.917C113.416 377.917 113.697 378.202 113.697 378.552C113.697 378.902 113.412 379.183 113.062 379.183Z" fill="#21111D"/>
<path d="M39.6161 174.841L9.45573 174.798C9.10557 174.798 8.82471 174.513 8.82471 174.163C8.82471 173.813 9.10942 173.532 9.45958 173.532L39.6199 173.575C39.9701 173.575 40.251 173.859 40.251 174.209C40.251 174.56 39.9663 174.841 39.6161 174.841Z" fill="#21111D"/>
<path d="M150.988 233.618C146.993 220.147 142.68 204.886 141.179 197.001C141.118 196.678 140.806 196.47 140.486 196.532C140.167 196.593 139.955 196.901 140.017 197.224C141.533 205.182 145.893 220.597 149.91 234.146C150.268 233.969 150.634 233.792 150.988 233.618Z" fill="#21111D"/>
<path d="M139.809 290.172C139.64 290.172 139.474 290.091 139.374 289.941C139.213 289.702 139.278 289.379 139.52 289.217C146.335 284.673 172.971 263.732 176.041 261.316C171.839 248.772 159.995 233.322 158.083 230.875L100.456 259.861L92.8447 265.399C92.6099 265.568 92.2867 265.518 92.1174 265.283C91.9481 265.052 91.9982 264.725 92.2329 264.556L99.9518 258.949L158.372 229.562L158.637 229.893C158.776 230.067 172.651 247.506 177.146 261.339L177.257 261.685L176.973 261.908C176.676 262.143 147.328 285.266 140.098 290.087C140.009 290.141 139.909 290.172 139.809 290.172Z" fill="#21111D"/>
<path d="M116.425 104.485V130.351C116.425 130.351 116.791 139.093 109.141 140.186L110.568 151.849C111.099 156.186 108.506 160.338 104.342 161.654C102.307 162.3 99.8749 162.77 97.1197 162.77C88.3772 162.77 83.6404 156.213 82.9131 152.934C82.1858 149.656 84.3714 133.991 84.3714 133.991L84.1059 126.295L85.1026 96.4692L116.425 104.485Z" fill="#FE9F73"/>
<path d="M106.197 130.424C106.082 130.424 105.974 130.358 105.92 130.25C105.847 130.097 105.912 129.916 106.066 129.843C108.533 128.665 110.534 129.181 110.615 129.204C110.78 129.246 110.876 129.415 110.83 129.581C110.788 129.746 110.618 129.843 110.453 129.796C110.434 129.793 108.579 129.319 106.328 130.393C106.286 130.412 106.243 130.424 106.197 130.424Z" fill="#F07162"/>
<path d="M95.0954 116.463C95.0069 116.448 94.9222 116.398 94.8645 116.321C94.7452 116.159 94.7798 115.932 94.9414 115.813C94.9991 115.771 100.794 111.549 104.692 115.948C104.827 116.098 104.811 116.328 104.661 116.463C104.511 116.598 104.28 116.582 104.146 116.432C100.69 112.534 95.5879 116.24 95.3724 116.398C95.2878 116.455 95.1877 116.479 95.0954 116.463Z" fill="#21111D"/>
<path d="M110.507 115.551C110.407 115.563 110.299 115.532 110.218 115.459C110.068 115.324 110.057 115.093 110.191 114.943C110.322 114.797 113.404 111.422 115.817 113.023C115.986 113.135 116.029 113.362 115.921 113.527C115.809 113.697 115.582 113.743 115.417 113.631C113.527 112.377 110.761 115.401 110.734 115.432C110.672 115.501 110.591 115.54 110.507 115.551Z" fill="#21111D"/>
<path d="M102.649 118.618C102.846 119.43 102.13 120.146 101.318 119.95C100.937 119.857 100.621 119.546 100.529 119.161C100.333 118.345 101.049 117.633 101.861 117.83C102.245 117.922 102.561 118.237 102.649 118.618Z" fill="black"/>
<path d="M114.266 117.525C114.463 118.337 113.747 119.053 112.935 118.857C112.554 118.764 112.238 118.453 112.146 118.068C111.95 117.256 112.666 116.54 113.477 116.736C113.862 116.829 114.174 117.144 114.266 117.525Z" fill="black"/>
<path d="M86.1146 97.9083L92.2137 106.543C92.2137 106.543 110.692 113.72 120.161 105.219C129.631 96.7192 126.718 92.6365 123.944 88.3807C122.574 86.2836 116.04 82.0123 108.029 85.5717C103.654 87.5149 100.418 81.7199 95.319 84.6328C90.2204 87.5457 84.2022 92.5942 84.8756 94.5913C85.5451 96.5846 86.1146 97.9083 86.1146 97.9083Z" fill="#1C1A1A"/>
<path d="M86.484 94.2643C86.484 94.2643 78.0723 93.8603 75.7251 101.956C73.3778 110.052 76.5332 114.293 76.614 116.706C76.6948 119.118 75.0594 135.391 86.4801 134.175L89.5662 107.297L85.5913 96.5962L86.484 94.2643Z" fill="#1C1A1A"/>
<path d="M93.6566 118.511C93.6566 122.131 90.7206 125.067 87.0997 125.067C83.4787 125.067 80.5427 122.131 80.5427 118.511C80.5427 114.89 83.4787 111.954 87.0997 111.954C90.7206 111.954 93.6566 114.89 93.6566 118.511Z" fill="#FE9F73"/>
<path d="M86.6147 122.527C85.2526 122.527 84.3445 121.504 84.0443 120.48C83.6903 119.268 84.0943 118.094 85.0794 117.483C86.5301 116.582 87.8499 117.159 88.5233 117.602C88.2386 116.859 87.7961 116.317 87.1996 115.986C85.9067 115.274 84.3059 115.793 84.2905 115.797C84.1943 115.828 84.0905 115.778 84.0597 115.682C84.0289 115.586 84.0789 115.482 84.1751 115.451C84.2482 115.428 85.9413 114.877 87.3728 115.662C88.2001 116.117 88.7619 116.921 89.0467 118.052L89.2044 118.687L88.7388 118.225C88.6734 118.16 87.115 116.644 85.2718 117.787C84.2521 118.421 84.1597 119.576 84.3944 120.372C84.6369 121.2 85.3641 122.158 86.6147 122.158C86.6263 122.158 86.6379 122.158 86.6532 122.158C86.7533 122.158 86.8341 122.239 86.8341 122.339C86.8341 122.439 86.7533 122.523 86.6532 122.523C86.6417 122.527 86.6263 122.527 86.6147 122.527Z" fill="#F07162"/>
<path d="M91.4053 132.759C91.4053 132.759 91.9171 147.393 110.195 148.79L109.141 140.186C109.141 140.186 97.285 142.568 91.4053 132.759Z" fill="#F07162"/>
<path d="M106.54 126.26C106.463 126.26 106.393 126.21 106.366 126.137C106.336 126.041 106.386 125.937 106.482 125.906L110.134 124.698L108.979 116.105C108.968 116.005 109.037 115.913 109.137 115.901C109.237 115.886 109.329 115.959 109.341 116.059L110.534 124.952L106.593 126.252C106.578 126.26 106.559 126.26 106.54 126.26Z" fill="#F07162"/>
<path d="M389.915 99.4744H466.159C467.255 99.4744 468.14 98.5856 468.14 97.4927V51.9983C468.14 50.9016 467.251 50.0166 466.159 50.0166H389.915C388.818 50.0166 387.933 50.9055 387.933 51.9983V97.4927C387.933 98.5856 388.818 99.4744 389.915 99.4744Z" fill="white"/>
<path d="M395.463 59.0173H462.345C462.807 59.0173 463.184 58.6402 463.184 58.1785C463.184 57.7167 462.81 57.3396 462.345 57.3396H395.463C395.002 57.3396 394.625 57.7167 394.625 58.1785C394.625 58.6441 395.002 59.0173 395.463 59.0173Z" fill="#212122"/>
<path d="M395.463 68.5373H462.345C462.807 68.5373 463.184 68.1641 463.184 67.6985C463.184 67.2367 462.81 66.8596 462.345 66.8596H395.463C395.002 66.8596 394.625 67.2329 394.625 67.6985C394.625 68.1641 395.002 68.5373 395.463 68.5373Z" fill="#212122"/>
<path d="M418.89 78.0571H462.349C462.81 78.0571 463.188 77.6839 463.188 77.2182C463.188 76.7565 462.814 76.3794 462.349 76.3794H418.89C418.428 76.3794 418.051 76.7526 418.051 77.2182C418.051 77.6839 418.428 78.0571 418.89 78.0571Z" fill="#212122"/>
<path d="M394.967 78.0571H412.31C412.772 78.0571 413.149 77.6839 413.149 77.2182C413.149 76.7565 412.776 76.3794 412.31 76.3794H394.967C394.506 76.3794 394.128 76.7526 394.128 77.2182C394.128 77.6839 394.506 78.0571 394.967 78.0571Z" fill="#212122"/>
<path d="M435.032 87.5769H462.349C462.81 87.5769 463.188 87.1998 463.188 86.738C463.188 86.2763 462.814 85.8992 462.349 85.8992H435.032C434.57 85.8992 434.193 86.2724 434.193 86.738C434.193 87.2036 434.57 87.5769 435.032 87.5769Z" fill="#212122"/>
<path d="M394.967 87.5769H428.906C429.368 87.5769 429.745 87.1998 429.745 86.738C429.745 86.2763 429.372 85.8992 428.906 85.8992H394.967C394.506 85.8992 394.128 86.2724 394.128 86.738C394.128 87.2036 394.506 87.5769 394.967 87.5769Z" fill="#212122"/>
<path d="M412.46 97.2888C412.375 97.6197 394.128 113.927 394.128 113.927L399.042 96.9463L412.46 97.2888Z" fill="white"/>
<path d="M290.403 161.788H198.875C197.559 161.788 196.493 160.723 196.493 159.407V117.648C196.493 116.332 197.559 115.267 198.875 115.267H290.403C291.719 115.267 292.785 116.332 292.785 117.648V159.407C292.785 160.723 291.719 161.788 290.403 161.788Z" fill="white"/>
<path d="M283.742 126.079H203.454C202.9 126.079 202.45 125.629 202.45 125.075C202.45 124.521 202.9 124.071 203.454 124.071H283.742C284.296 124.071 284.746 124.521 284.746 125.075C284.746 125.629 284.296 126.079 283.742 126.079Z" fill="#212122"/>
<path d="M283.742 137.504H203.454C202.9 137.504 202.45 137.054 202.45 136.5C202.45 135.946 202.9 135.496 203.454 135.496H283.742C284.296 135.496 284.746 135.946 284.746 136.5C284.746 137.054 284.296 137.504 283.742 137.504Z" fill="#212122"/>
<path d="M255.621 148.932H203.454C202.9 148.932 202.45 148.482 202.45 147.928C202.45 147.374 202.9 146.924 203.454 146.924H255.621C256.175 146.924 256.625 147.374 256.625 147.928C256.625 148.482 256.175 148.932 255.621 148.932Z" fill="#212122"/>
<path d="M284.338 148.932H263.521C262.967 148.932 262.516 148.482 262.516 147.928C262.516 147.374 262.967 146.924 263.521 146.924H284.338C284.892 146.924 285.342 147.374 285.342 147.928C285.342 148.482 284.892 148.932 284.338 148.932Z" fill="#212122"/>
<path d="M263.34 159.164C263.44 159.561 285.342 179.139 285.342 179.139L279.444 158.756L263.34 159.164Z" fill="white"/>
<path d="M332.784 84.6638H220.751C219.585 84.6638 218.638 83.7172 218.638 82.5512V34.0554C218.638 32.8895 219.585 31.9429 220.751 31.9429H332.784C333.95 31.9429 334.897 32.8895 334.897 34.0554V82.5512C334.897 83.7172 333.95 84.6638 332.784 84.6638Z" fill="white"/>
<path d="M326.866 41.5399H224.814C224.322 41.5399 223.922 41.1397 223.922 40.6471C223.922 40.1546 224.322 39.7544 224.814 39.7544H326.866C327.359 39.7544 327.759 40.1546 327.759 40.6471C327.763 41.1397 327.362 41.5399 326.866 41.5399Z" fill="#212122"/>
<path d="M326.866 51.6868H224.814C224.322 51.6868 223.922 51.2866 223.922 50.7941C223.922 50.3016 224.322 49.9014 224.814 49.9014H326.866C327.359 49.9014 327.759 50.3016 327.759 50.7941C327.763 51.2866 327.362 51.6868 326.866 51.6868Z" fill="#212122"/>
<path d="M301.897 61.8377H224.814C224.322 61.8377 223.922 61.4375 223.922 60.945C223.922 60.4524 224.322 60.0522 224.814 60.0522H301.897C302.389 60.0522 302.789 60.4524 302.789 60.945C302.789 61.4375 302.389 61.8377 301.897 61.8377Z" fill="#212122"/>
<path d="M327.397 61.8377H308.911C308.419 61.8377 308.019 61.4375 308.019 60.945C308.019 60.4524 308.419 60.0522 308.911 60.0522H327.397C327.889 60.0522 328.29 60.4524 328.29 60.945C328.29 61.4375 327.889 61.8377 327.397 61.8377Z" fill="#212122"/>
<path d="M284.689 71.9847H224.814C224.322 71.9847 223.922 71.5845 223.922 71.0919C223.922 70.5994 224.322 70.1992 224.814 70.1992H284.689C285.181 70.1992 285.581 70.5994 285.581 71.0919C285.581 71.5845 285.185 71.9847 284.689 71.9847Z" fill="#212122"/>
<path d="M327.397 71.9847H291.218C290.726 71.9847 290.326 71.5845 290.326 71.0919C290.326 70.5994 290.726 70.1992 291.218 70.1992H327.397C327.89 70.1992 328.29 70.5994 328.29 71.0919C328.29 71.5845 327.89 71.9847 327.397 71.9847Z" fill="#212122"/>
<path d="M308.75 82.336C308.839 82.69 325.273 101.699 325.273 101.699L323.053 81.9705L308.75 82.336Z" fill="white"/>
<path d="M596.568 88.712C612.9 72.3806 612.9 45.9021 596.568 29.5707C580.237 13.2392 553.759 13.2393 537.427 29.5707C521.096 45.9021 521.096 72.3806 537.427 88.712C553.759 105.043 580.237 105.043 596.568 88.712Z" fill="#212122"/>
<path d="M591.562 83.7056C605.128 70.1391 605.128 48.1436 591.562 34.5771C577.995 21.0107 556 21.0107 542.433 34.5771C528.867 48.1436 528.867 70.1391 542.433 83.7056C556 97.272 577.995 97.272 591.562 83.7056Z" fill="#6B85B6"/>
<path d="M566.717 24.397C566.686 24.397 566.651 24.397 566.621 24.4009L566.979 58.8132L599.929 48.0197C595.257 34.1785 582.116 24.2662 566.717 24.397Z" fill="#F2543C"/>
<path d="M572.735 93.6567C572.612 93.6567 572.504 93.5644 572.485 93.4412C572.466 93.3066 572.558 93.1796 572.693 93.1565C584.148 91.2594 594.118 83.4288 598.713 72.7277C598.751 72.6353 598.843 72.5737 598.944 72.5737C598.986 72.5737 599.024 72.5853 599.059 72.6045C599.174 72.6661 599.224 72.8085 599.174 72.9278C594.441 83.9483 584.571 91.6981 572.777 93.6529C572.762 93.6529 572.747 93.6567 572.735 93.6567Z" fill="black"/>
<path d="M565.89 59.2327C566.144 60.0331 566.825 60.5218 567.371 60.2986L585.98 52.6719L585.953 52.595L566.448 57.5204C565.886 57.6627 565.632 58.4285 565.878 59.2096C565.886 59.2173 565.89 59.225 565.89 59.2327Z" fill="#212122"/>
<path d="M539.839 60.5062L533.952 60.4947L533.956 57.6433L539.843 57.6549L539.839 60.5062ZM534.333 60.1175L539.462 60.1291L539.466 58.0358L534.336 58.0243L534.333 60.1175Z" fill="black"/>
<path d="M600.063 60.6253L594.176 60.6138L594.18 57.7625L600.067 57.774L600.063 60.6253ZM594.553 60.2367L599.682 60.2482L599.686 58.155L594.557 58.1434L594.553 60.2367Z" fill="black"/>
<path d="M568.372 92.1903L565.52 92.1864L565.532 86.2991L568.383 86.3029L568.372 92.1903ZM565.897 91.8094L567.991 91.8132L568.002 86.6839L565.909 86.68L565.897 91.8094Z" fill="black"/>
<path d="M568.491 31.9701L565.64 31.9662L565.651 26.0789L568.503 26.0827L568.491 31.9701ZM566.017 31.5853L568.11 31.5892L568.122 26.4598L566.028 26.456L566.017 31.5853Z" fill="black"/>
<path d="M566.975 60.364C567.814 60.3755 568.487 59.6213 568.441 58.7209L566.852 28.095H566.771L565.513 58.7324C565.478 59.6136 566.128 60.3486 566.948 60.3601C566.956 60.364 566.967 60.364 566.975 60.364Z" fill="#212122"/>
<path d="M605.608 42.4441C603.449 37.4571 600.379 32.9858 596.485 29.1571C592.59 25.3283 588.069 22.3346 583.044 20.2606C577.841 18.1134 572.327 17.0475 566.651 17.0937C564.404 17.113 562.149 17.3092 559.952 17.6825C550.209 19.3294 541.309 24.4164 534.894 32.0046C534.436 32.5471 533.994 33.1012 533.563 33.6669C533.505 33.7438 533.513 33.8477 533.582 33.917L533.586 33.9209C533.667 34.0017 533.797 33.9901 533.867 33.9016C540.054 25.7593 549.232 19.9528 560.029 18.1288C562.203 17.7594 564.435 17.567 566.659 17.5478C589.593 17.3554 608.409 35.8525 608.606 58.7902C608.706 70.6458 603.903 81.4508 595.938 89.1275C595.854 89.2122 595.865 89.3507 595.965 89.42C596.038 89.47 596.138 89.4623 596.2 89.4007C597.223 88.4118 598.205 87.369 599.128 86.2762C605.612 78.6072 609.137 68.8449 609.052 58.7902C609.002 53.1029 607.844 47.608 605.608 42.4441Z" fill="black"/>
</svg>
