<svg width="117" height="56" viewBox="0 0 117 56" fill="none" xmlns="http://www.w3.org/2000/svg">
<path d="M46.382 14.168C45.598 14.168 44.8467 14.0653 44.128 13.86C43.4093 13.6453 42.8307 13.37 42.392 13.034L43.162 11.326C43.582 11.6247 44.0767 11.872 44.646 12.068C45.2247 12.2547 45.808 12.348 46.396 12.348C46.844 12.348 47.2033 12.306 47.474 12.222C47.754 12.1287 47.9593 12.0027 48.09 11.844C48.2207 11.6853 48.286 11.5033 48.286 11.298C48.286 11.0367 48.1833 10.8313 47.978 10.682C47.7727 10.5233 47.502 10.3973 47.166 10.304C46.83 10.2013 46.4567 10.108 46.046 10.024C45.6447 9.93067 45.2387 9.81867 44.828 9.688C44.4267 9.55733 44.058 9.38933 43.722 9.184C43.386 8.97867 43.1107 8.708 42.896 8.372C42.6907 8.036 42.588 7.60667 42.588 7.084C42.588 6.524 42.7373 6.01533 43.036 5.558C43.344 5.09133 43.8013 4.72267 44.408 4.452C45.024 4.172 45.794 4.032 46.718 4.032C47.334 4.032 47.9407 4.10667 48.538 4.256C49.1353 4.396 49.6627 4.61067 50.12 4.9L49.42 6.622C48.9627 6.36067 48.5053 6.16933 48.048 6.048C47.5907 5.91733 47.1427 5.852 46.704 5.852C46.2653 5.852 45.906 5.90333 45.626 6.006C45.346 6.10867 45.1453 6.244 45.024 6.412C44.9027 6.57067 44.842 6.75733 44.842 6.972C44.842 7.224 44.9447 7.42933 45.15 7.588C45.3553 7.73733 45.626 7.85867 45.962 7.952C46.298 8.04533 46.6667 8.13867 47.068 8.232C47.4787 8.32533 47.8847 8.43267 48.286 8.554C48.6967 8.67533 49.07 8.83867 49.406 9.044C49.742 9.24933 50.0127 9.52 50.218 9.856C50.4327 10.192 50.54 10.6167 50.54 11.13C50.54 11.6807 50.386 12.1847 50.078 12.642C49.77 13.0993 49.308 13.468 48.692 13.748C48.0853 14.028 47.3153 14.168 46.382 14.168ZM55.0157 14.112C54.1291 14.112 53.4384 13.888 52.9437 13.44C52.4491 12.9827 52.2017 12.306 52.2017 11.41V4.802H54.3857V11.382C54.3857 11.6993 54.4697 11.9467 54.6377 12.124C54.8057 12.292 55.0344 12.376 55.3237 12.376C55.6691 12.376 55.9631 12.2827 56.2057 12.096L56.7937 13.636C56.5697 13.7947 56.2991 13.916 55.9817 14C55.6737 14.0747 55.3517 14.112 55.0157 14.112ZM51.0397 8.316V6.636H56.2617V8.316H51.0397ZM58.0197 14V6.468H60.1057V8.596L59.8117 7.98C60.0357 7.448 60.3951 7.04667 60.8897 6.776C61.3844 6.496 61.9864 6.356 62.6957 6.356V8.372C62.6024 8.36267 62.5184 8.358 62.4437 8.358C62.3691 8.34867 62.2897 8.344 62.2057 8.344C61.6084 8.344 61.1231 8.51667 60.7497 8.862C60.3857 9.198 60.2037 9.72533 60.2037 10.444V14H58.0197ZM68.1221 14V12.53L67.9821 12.208V9.576C67.9821 9.10933 67.8375 8.74533 67.5481 8.484C67.2681 8.22267 66.8341 8.092 66.2461 8.092C65.8448 8.092 65.4481 8.15733 65.0561 8.288C64.6735 8.40933 64.3468 8.57733 64.0761 8.792L63.2921 7.266C63.7028 6.97667 64.1975 6.75267 64.7761 6.594C65.3548 6.43533 65.9428 6.356 66.5401 6.356C67.6881 6.356 68.5795 6.62667 69.2141 7.168C69.8488 7.70933 70.1661 8.554 70.1661 9.702V14H68.1221ZM65.8261 14.112C65.2381 14.112 64.7341 14.014 64.3141 13.818C63.8941 13.6127 63.5721 13.3373 63.3481 12.992C63.1241 12.6467 63.0121 12.2593 63.0121 11.83C63.0121 11.382 63.1195 10.99 63.3341 10.654C63.5581 10.318 63.9081 10.0567 64.3841 9.87C64.8601 9.674 65.4808 9.576 66.2461 9.576H68.2481V10.85H66.4841C65.9708 10.85 65.6161 10.934 65.4201 11.102C65.2335 11.27 65.1401 11.48 65.1401 11.732C65.1401 12.012 65.2475 12.236 65.4621 12.404C65.6861 12.5627 65.9895 12.642 66.3721 12.642C66.7361 12.642 67.0628 12.558 67.3521 12.39C67.6415 12.2127 67.8515 11.956 67.9821 11.62L68.3181 12.628C68.1595 13.1133 67.8701 13.482 67.4501 13.734C67.0301 13.986 66.4888 14.112 65.8261 14.112ZM76.7208 6.356C77.3181 6.356 77.8501 6.47733 78.3168 6.72C78.7928 6.95333 79.1661 7.31733 79.4368 7.812C79.7074 8.29733 79.8428 8.92267 79.8428 9.688V14H77.6588V10.024C77.6588 9.41733 77.5234 8.96933 77.2528 8.68C76.9914 8.39067 76.6181 8.246 76.1328 8.246C75.7874 8.246 75.4748 8.32067 75.1948 8.47C74.9241 8.61 74.7094 8.82933 74.5508 9.128C74.4014 9.42667 74.3268 9.80933 74.3268 10.276V14H72.1428V6.468H74.2288V8.554L73.8368 7.924C74.1074 7.42 74.4948 7.03267 74.9988 6.762C75.5028 6.49133 76.0768 6.356 76.7208 6.356ZM81.8225 14V6.468H84.0065V14H81.8225ZM82.9145 5.418C82.5131 5.418 82.1865 5.30133 81.9345 5.068C81.6825 4.83467 81.5565 4.54533 81.5565 4.2C81.5565 3.85467 81.6825 3.56533 81.9345 3.332C82.1865 3.09867 82.5131 2.982 82.9145 2.982C83.3158 2.982 83.6425 3.094 83.8945 3.318C84.1465 3.53267 84.2725 3.81267 84.2725 4.158C84.2725 4.522 84.1465 4.82533 83.8945 5.068C83.6518 5.30133 83.3251 5.418 82.9145 5.418ZM89.1134 14.112C88.2267 14.112 87.5361 13.888 87.0414 13.44C86.5467 12.9827 86.2994 12.306 86.2994 11.41V4.802H88.4834V11.382C88.4834 11.6993 88.5674 11.9467 88.7354 12.124C88.9034 12.292 89.1321 12.376 89.4214 12.376C89.7667 12.376 90.0607 12.2827 90.3034 12.096L90.8914 13.636C90.6674 13.7947 90.3967 13.916 90.0794 14C89.7714 14.0747 89.4494 14.112 89.1134 14.112ZM85.1374 8.316V6.636H90.3594V8.316H85.1374ZM94.6514 14.112C94.0074 14.112 93.3867 14.0373 92.7894 13.888C92.2014 13.7293 91.7347 13.5333 91.3894 13.3L92.1174 11.732C92.4627 11.9467 92.8687 12.124 93.3354 12.264C93.8114 12.3947 94.278 12.46 94.7354 12.46C95.2394 12.46 95.594 12.3993 95.7994 12.278C96.014 12.1567 96.1214 11.9887 96.1214 11.774C96.1214 11.5967 96.0374 11.466 95.8694 11.382C95.7107 11.2887 95.496 11.2187 95.2254 11.172C94.9547 11.1253 94.656 11.0787 94.3294 11.032C94.012 10.9853 93.69 10.9247 93.3634 10.85C93.0367 10.766 92.738 10.6447 92.4674 10.486C92.1967 10.3273 91.9774 10.1127 91.8094 9.842C91.6507 9.57133 91.5714 9.22133 91.5714 8.792C91.5714 8.316 91.7067 7.896 91.9774 7.532C92.2574 7.168 92.6587 6.88333 93.1814 6.678C93.704 6.46333 94.3294 6.356 95.0574 6.356C95.5707 6.356 96.0934 6.412 96.6254 6.524C97.1574 6.636 97.6007 6.79933 97.9554 7.014L97.2274 8.568C96.8634 8.35333 96.4947 8.20867 96.1214 8.134C95.7574 8.05 95.4027 8.008 95.0574 8.008C94.572 8.008 94.2174 8.07333 93.9934 8.204C93.7694 8.33467 93.6574 8.50267 93.6574 8.708C93.6574 8.89467 93.7367 9.03467 93.8954 9.128C94.0634 9.22133 94.2827 9.296 94.5534 9.352C94.824 9.408 95.118 9.45933 95.4354 9.506C95.762 9.54333 96.0887 9.604 96.4154 9.688C96.742 9.772 97.036 9.89333 97.2974 10.052C97.568 10.2013 97.7874 10.4113 97.9554 10.682C98.1234 10.9433 98.2074 11.2887 98.2074 11.718C98.2074 12.1847 98.0674 12.6 97.7874 12.964C97.5074 13.3187 97.1014 13.5987 96.5694 13.804C96.0467 14.0093 95.4074 14.112 94.6514 14.112ZM104.175 14V12.53L104.035 12.208V9.576C104.035 9.10933 103.89 8.74533 103.601 8.484C103.321 8.22267 102.887 8.092 102.299 8.092C101.898 8.092 101.501 8.15733 101.109 8.288C100.726 8.40933 100.4 8.57733 100.129 8.792L99.3449 7.266C99.7555 6.97667 100.25 6.75267 100.829 6.594C101.408 6.43533 101.996 6.356 102.593 6.356C103.741 6.356 104.632 6.62667 105.267 7.168C105.902 7.70933 106.219 8.554 106.219 9.702V14H104.175ZM101.879 14.112C101.291 14.112 100.787 14.014 100.367 13.818C99.9469 13.6127 99.6249 13.3373 99.4009 12.992C99.1769 12.6467 99.0649 12.2593 99.0649 11.83C99.0649 11.382 99.1722 10.99 99.3869 10.654C99.6109 10.318 99.9609 10.0567 100.437 9.87C100.913 9.674 101.534 9.576 102.299 9.576H104.301V10.85H102.537C102.024 10.85 101.669 10.934 101.473 11.102C101.286 11.27 101.193 11.48 101.193 11.732C101.193 12.012 101.3 12.236 101.515 12.404C101.739 12.5627 102.042 12.642 102.425 12.642C102.789 12.642 103.116 12.558 103.405 12.39C103.694 12.2127 103.904 11.956 104.035 11.62L104.371 12.628C104.212 13.1133 103.923 13.482 103.503 13.734C103.083 13.986 102.542 14.112 101.879 14.112Z" fill="black"/>
<path d="M1.162 51V41.2H3.038L7.21 48.116H6.216L10.318 41.2H12.18L12.208 51H10.08L10.066 44.462H10.458L7.182 49.964H6.16L2.814 44.462H3.29V51H1.162ZM17.9631 51.112C17.1604 51.112 16.4464 50.944 15.8211 50.608C15.2051 50.272 14.7151 49.8147 14.3511 49.236C13.9964 48.648 13.8191 47.9807 13.8191 47.234C13.8191 46.478 13.9964 45.8107 14.3511 45.232C14.7151 44.644 15.2051 44.1867 15.8211 43.86C16.4464 43.524 17.1604 43.356 17.9631 43.356C18.7564 43.356 19.4658 43.524 20.0911 43.86C20.7164 44.1867 21.2064 44.6393 21.5611 45.218C21.9158 45.7967 22.0931 46.4687 22.0931 47.234C22.0931 47.9807 21.9158 48.648 21.5611 49.236C21.2064 49.8147 20.7164 50.272 20.0911 50.608C19.4658 50.944 18.7564 51.112 17.9631 51.112ZM17.9631 49.32C18.3271 49.32 18.6538 49.236 18.9431 49.068C19.2324 48.9 19.4611 48.662 19.6291 48.354C19.7971 48.0367 19.8811 47.6633 19.8811 47.234C19.8811 46.7953 19.7971 46.422 19.6291 46.114C19.4611 45.806 19.2324 45.568 18.9431 45.4C18.6538 45.232 18.3271 45.148 17.9631 45.148C17.5991 45.148 17.2724 45.232 16.9831 45.4C16.6938 45.568 16.4604 45.806 16.2831 46.114C16.1151 46.422 16.0311 46.7953 16.0311 47.234C16.0311 47.6633 16.1151 48.0367 16.2831 48.354C16.4604 48.662 16.6938 48.9 16.9831 49.068C17.2724 49.236 17.5991 49.32 17.9631 49.32ZM24.2998 53.828C23.9078 53.828 23.5205 53.7673 23.1378 53.646C22.7552 53.5247 22.4425 53.3567 22.1998 53.142L22.9978 51.588C23.1658 51.7373 23.3572 51.854 23.5718 51.938C23.7958 52.022 24.0152 52.064 24.2298 52.064C24.5378 52.064 24.7805 51.9893 24.9578 51.84C25.1445 51.7 25.3125 51.462 25.4618 51.126L25.8538 50.202L26.0218 49.964L28.7238 43.468H30.8238L27.4218 51.462C27.1792 52.0687 26.8992 52.5447 26.5818 52.89C26.2738 53.2353 25.9285 53.478 25.5458 53.618C25.1725 53.758 24.7572 53.828 24.2998 53.828ZM25.5878 51.294L22.2278 43.468H24.4818L27.0858 49.768L25.5878 51.294ZM36.0889 51V49.53L35.9489 49.208V46.576C35.9489 46.1093 35.8043 45.7453 35.5149 45.484C35.2349 45.2227 34.8009 45.092 34.2129 45.092C33.8116 45.092 33.4149 45.1573 33.0229 45.288C32.6403 45.4093 32.3136 45.5773 32.0429 45.792L31.2589 44.266C31.6696 43.9767 32.1643 43.7527 32.7429 43.594C33.3216 43.4353 33.9096 43.356 34.5069 43.356C35.6549 43.356 36.5463 43.6267 37.1809 44.168C37.8156 44.7093 38.1329 45.554 38.1329 46.702V51H36.0889ZM33.7929 51.112C33.2049 51.112 32.7009 51.014 32.2809 50.818C31.8609 50.6127 31.5389 50.3373 31.3149 49.992C31.0909 49.6467 30.9789 49.2593 30.9789 48.83C30.9789 48.382 31.0863 47.99 31.3009 47.654C31.5249 47.318 31.8749 47.0567 32.3509 46.87C32.8269 46.674 33.4476 46.576 34.2129 46.576H36.2149V47.85H34.4509C33.9376 47.85 33.5829 47.934 33.3869 48.102C33.2003 48.27 33.1069 48.48 33.1069 48.732C33.1069 49.012 33.2143 49.236 33.4289 49.404C33.6529 49.5627 33.9563 49.642 34.3389 49.642C34.7029 49.642 35.0296 49.558 35.3189 49.39C35.6083 49.2127 35.8183 48.956 35.9489 48.62L36.2849 49.628C36.1263 50.1133 35.8369 50.482 35.4169 50.734C34.9969 50.986 34.4556 51.112 33.7929 51.112Z" fill="black"/>
<path d="M113.85 39.7547C113.85 39.7547 110.676 47.7238 113.327 53.7574L52.4099 54.2115L46.788 53.6958L41.8357 50.6213L41.8395 45.923L43.2209 42.0404L47.7192 39.6931L113.85 39.7547Z" fill="white"/>
<path d="M49.5552 54.9814L115.367 55.0429C115.794 55.0429 116.144 54.6966 116.144 54.2657C116.144 53.8385 115.798 53.4884 115.371 53.4884L49.5552 53.4268C45.5841 53.423 42.3517 50.4215 42.3556 46.7352C42.3594 43.0488 45.5956 40.0551 49.5667 40.059L115.378 40.1205C115.805 40.1205 116.156 39.7742 116.156 39.3433C116.156 38.9161 115.809 38.566 115.382 38.566L49.5705 38.5044C44.7413 38.5005 40.8088 42.1907 40.8049 46.7313C40.8011 51.2796 44.726 54.9775 49.5552 54.9814Z" fill="#258D8C"/>
<path d="M80.6502 46.9464L112.946 46.9772C113.042 46.9772 113.119 46.9002 113.119 46.8041C113.119 46.7079 113.042 46.6309 112.946 46.6309L80.6502 46.6001C80.554 46.6001 80.4771 46.6771 80.4771 46.7733C80.4771 46.8695 80.5578 46.9464 80.6502 46.9464Z" fill="#AAC9F8"/>
<path d="M44.7256 46.9122L76.1019 46.943C76.1981 46.943 76.2751 46.866 76.2751 46.7698C76.2751 46.6736 76.1981 46.5967 76.1019 46.5967L44.7256 46.5659C44.6294 46.5659 44.5525 46.6429 44.5525 46.7391C44.5525 46.8353 44.6294 46.9122 44.7256 46.9122Z" fill="#AAC9F8"/>
<path d="M45.5647 50.0021L61.6646 50.0175C61.7608 50.0175 61.8378 49.9405 61.8378 49.8443C61.8378 49.7481 61.7608 49.6712 61.6646 49.6712L45.5647 49.6558C45.4685 49.6558 45.3916 49.7327 45.3916 49.8289C45.3916 49.9251 45.4685 50.0021 45.5647 50.0021Z" fill="#AAC9F8"/>
<path d="M64.0267 50.0211L112.946 50.0673C113.042 50.0673 113.119 49.9903 113.119 49.8941C113.119 49.7979 113.042 49.721 112.946 49.721L64.0267 49.6748C63.9305 49.6748 63.8535 49.7517 63.8535 49.8479C63.8535 49.9441 63.9305 50.0211 64.0267 50.0211Z" fill="#AAC9F8"/>
<path d="M49.5549 55.1545L115.37 55.216C115.894 55.216 116.321 54.7928 116.321 54.2694C116.321 53.7461 115.897 53.319 115.374 53.319C115.278 53.319 115.201 53.3959 115.201 53.4921C115.201 53.5883 115.278 53.6653 115.374 53.6653C115.705 53.6653 115.978 53.9385 115.978 54.2694C115.978 54.6004 115.705 54.8735 115.374 54.8735L49.5625 54.812C44.8295 54.8081 40.9816 51.1872 40.9855 46.739C40.9893 42.2907 44.8449 38.6775 49.5779 38.6813L115.393 38.7429C115.724 38.7429 115.998 39.0161 115.998 39.347C115.998 39.678 115.724 39.9512 115.393 39.9512C115.297 39.9512 115.22 40.0281 115.22 40.1243C115.22 40.2205 115.297 40.2975 115.393 40.2975C115.917 40.2975 116.344 39.8742 116.344 39.3509C116.344 38.8276 115.921 38.4004 115.397 38.4004L49.5856 38.3389C44.6602 38.335 40.6545 42.1022 40.6468 46.739C40.6276 51.3719 44.6295 55.1506 49.5549 55.1545Z" fill="#21111D"/>
<path d="M95.5535 43.6949C95.5535 43.6949 97.6199 48.8589 96.4232 52.6607L94.7417 50.0556C94.7417 50.0556 93.5911 51.4332 92.8831 52.6568C92.8831 52.6568 91.6055 44.1644 89.1121 43.6873L95.5535 43.6949Z" fill="#F75553"/>
<path d="M45.5723 43.8219L112.954 43.8873C113.05 43.8873 113.127 43.8104 113.127 43.7142C113.127 43.618 113.05 43.541 112.954 43.541L45.5723 43.4756C45.4761 43.4756 45.3992 43.5525 45.3992 43.6487C45.3992 43.7449 45.4761 43.8219 45.5723 43.8219Z" fill="#AAC9F8"/>
<path d="M42.5015 23.3584C42.5015 23.3584 45.6607 31.3352 42.9979 37.3611L103.915 37.9306L109.537 37.4265L114.493 34.3597L114.497 29.6614L113.123 25.7749L108.629 23.42L42.5015 23.3584Z" fill="white"/>
<path d="M106.766 38.7121L40.9548 38.6505C40.5277 38.6505 40.1775 38.3042 40.1775 37.8732C40.1775 37.4461 40.5277 37.0959 40.9548 37.0959L106.766 37.1575C110.738 37.1613 113.974 34.1638 113.978 30.4774C113.981 26.7911 110.753 23.7897 106.778 23.7858L40.9663 23.7243C40.5392 23.7243 40.189 23.3779 40.189 22.947C40.189 22.5198 40.5392 22.1697 40.9663 22.1697L106.782 22.2313C111.611 22.2351 115.536 25.9368 115.532 30.4774C115.528 35.0257 111.596 38.7159 106.766 38.7121Z" fill="#FC4963"/>
<path d="M43.3868 30.5848L75.6866 30.6156C75.7828 30.6156 75.8597 30.5387 75.8597 30.4425C75.8597 30.3463 75.7828 30.2693 75.6866 30.2693L43.3907 30.2385C43.2945 30.2385 43.2174 30.3155 43.2174 30.4117C43.2136 30.5079 43.2906 30.5848 43.3868 30.5848Z" fill="#AAC9F8"/>
<path d="M80.2348 30.6198L111.611 30.6506C111.707 30.6506 111.784 30.5736 111.784 30.4774C111.784 30.3812 111.707 30.3042 111.611 30.3042L80.2348 30.2734C80.1386 30.2734 80.0615 30.3504 80.0615 30.4466C80.0615 30.5428 80.1386 30.6198 80.2348 30.6198Z" fill="#AAC9F8"/>
<path d="M94.6642 33.725L110.764 33.7404C110.86 33.7404 110.937 33.6634 110.937 33.5672C110.937 33.471 110.86 33.3941 110.764 33.3941L94.6642 33.3787C94.568 33.3787 94.491 33.4556 94.491 33.5518C94.4948 33.648 94.5718 33.725 94.6642 33.725Z" fill="#AAC9F8"/>
<path d="M43.3829 33.6749L92.3019 33.7211C92.3981 33.7211 92.4751 33.6441 92.4751 33.5479C92.4751 33.4518 92.3981 33.3748 92.3019 33.3748L43.3829 33.3286C43.2867 33.3286 43.2097 33.4056 43.2097 33.5018C43.2136 33.598 43.2905 33.6749 43.3829 33.6749Z" fill="#AAC9F8"/>
<path d="M40.9504 38.8194L106.766 38.881C111.691 38.8848 115.697 35.1177 115.705 30.4809C115.709 25.8441 111.707 22.0693 106.785 22.0616L40.9697 22C40.4464 22 40.0193 22.4233 40.0193 22.9466C40.0193 23.4699 40.4425 23.897 40.9658 23.897C41.062 23.897 41.139 23.8201 41.139 23.7239C41.139 23.6277 41.062 23.5507 40.9658 23.5507C40.6349 23.5507 40.3617 23.2775 40.3617 22.9466C40.3617 22.6157 40.6349 22.3425 40.9658 22.3425L106.778 22.404C111.511 22.4079 115.358 26.0288 115.355 30.4771C115.351 34.9253 111.495 38.5385 106.762 38.5347L40.9504 38.4731C40.6195 38.4731 40.3463 38.1999 40.3463 37.869C40.3463 37.5381 40.6195 37.2649 40.9504 37.2649C41.0466 37.2649 41.1236 37.1879 41.1236 37.0917C41.1236 36.9955 41.0466 36.9185 40.9504 36.9185C40.4271 36.9185 40 37.3418 40 37.8652C40.0038 38.3962 40.4271 38.8194 40.9504 38.8194Z" fill="#21111D"/>
<path d="M51.394 27.3298C51.394 27.3298 49.3162 32.4899 50.509 36.2956L52.1944 33.6944C52.1944 33.6944 53.3411 35.0758 54.0453 36.2994C54.0453 36.2994 55.3382 27.8108 57.8317 27.3375L51.394 27.3298Z" fill="#212122"/>
<path d="M43.3905 27.495L110.772 27.5604C110.868 27.5604 110.945 27.4835 110.945 27.3873C110.945 27.2911 110.868 27.2141 110.772 27.2141L43.3905 27.1487C43.2943 27.1487 43.2173 27.2256 43.2173 27.3218C43.2173 27.418 43.2943 27.495 43.3905 27.495Z" fill="#AAC9F8"/>
<path d="M14.3323 4V7.88629C7.5328 7.88629 2 13.4191 2 20.2186C2 27.0181 7.5328 32.5509 14.3323 32.5509V34.0935C14.3323 35.3247 15.3291 36.3215 16.5603 36.3215H33.7282C34.9594 36.3215 35.9562 35.3247 35.9562 34.0935V4H14.3323ZM5.0408 20.2156C5.0408 15.0922 9.20895 10.9241 14.3323 10.9241V20.2156V29.5071C9.20895 29.5071 5.0408 25.339 5.0408 20.2156Z" fill="#6D6D1B"/>
<path d="M27.622 19.9612L27.1082 20.2695L30.2982 25.5863L30.8121 25.2779L27.622 19.9612Z" fill="#49263E"/>
<path d="M31.2323 20.9913L30.7131 21.2905L33.726 26.5185L34.2452 26.2193L31.2323 20.9913Z" fill="#49263E"/>
</svg>
